# xmcd CD database file
#
# Track frame offsets:
#	150
#	21955
#	43795
#	64375
#	84272
#	97975
#	121707
#	145895
#
# Disc length: 2170 seconds
#
# Revision: 0
# Processed by: cddbd v1.5.1PL0 Copyright (c) Steve Scherf et al.
# Submitted via: CDex 1.51
#
DISCID=63087808
DTITLE=Various Artist - ICEBOX-Special SOUNDTRACK-
DYEAR=2004
DGENRE=JPop
TTITLE0=冷たいキス／ICEBOX
TTITLE1=冷たくしないで／ICEBOX　BABY
TTITLE2=For the moment／Every Little Thing
TTITLE3=出逢った頃のように／Every Little Thing
TTITLE4=SUMMER TIME KIDS STORY／センチメンタルバス
TTITLE5=faraway／day after tomorrow
TTITLE6=CURRENT／ day after tomorrow
TTITLE7=Happy Days／大塚　愛
EXTD=YEAR: 2004
EXTT0=
EXTT1=
EXTT2=
EXTT3=
EXTT4=
EXTT5=
EXTT6=
EXTT7=
PLAYORDER=
